<svg xmlns="http://www.w3.org/2000/svg" width="88" height="31" viewBox="0 0 44 15.5" xml:space="preserve"><defs><clipPath clipPathUnits="userSpaceOnUse" id="a"><path d="m117.728 54.656-52.39-52.39a7.727 7.727 0 0 0-10.931 0l-10.875 10.88 13.797 13.8a9.18 9.18 0 0 1 11.622 11.702l13.3 13.3a9.177 9.177 0 0 1 9.505 2.183 9.194 9.194 0 0 1 0 13.003 9.205 9.205 0 0 1-13.013 0 9.2 9.2 0 0 1-1.995-10.003L64.343 44.728v32.645c5.642 2.788 6.879 10.294 2.428 14.744a9.192 9.192 0 0 1-13.002 0 9.194 9.194 0 0 1 0-13.005 9.219 9.219 0 0 1 3.009-2.01V44.158a9.206 9.206 0 0 1-4.988-12.06L38.186 18.493 2.26 54.41a7.738 7.738 0 0 0 0 10.931l52.392 52.399a7.736 7.736 0 0 0 10.93 0l52.157-52.152a7.738 7.738 0 0 0 0-10.932" stroke-width="1.306"/></clipPath></defs><rect width="43.041996" height="14.541999" x=".479001" y=".479001" ry="1.097613" fill="#10121d" stroke="#b66de4" stroke-width=".958001" stroke-linecap="square" paint-order="markers stroke fill"/><g clip-path="url(#a)" paint-order="markers stroke fill" transform="translate(2.5 .99989) scale(.1125)"><rect width="120" height="22.5" ry="0" fill="#fe9494"/><rect width="120" height="22.5" y="20" ry="0" fill="#ffc783"/><rect width="120" height="22.5" y="40" ry="0" fill="#fff683"/><rect width="120" height="22.5" y="60.000999" ry="0" fill="#69cb86"/><rect width="120" height="22.5" y="80.000999" ry="0" fill="#83a8ff"/><rect width="120" height="19.999001" y="100.002" ry="0" fill="#c56ad4"/></g><path d="M20.319514 11.342375q-.544299 0-.956411-.139963-.412112-.132187-.637608-.388785Q18.5 10.557028 18.5 10.183795q0-.233271.116636-.450991.124411-.21772.365458-.396561.241046-.186617.622056-.334356l.404336.443216q-.365458.132187-.513195.295477-.14774.171065-.14774.388785 0 .171065.116636.295477.116637.124411.334356.186617.21772.06221.520971.06221.295477 0 .48987-.06998.194392-.06999.287701-.202168.101084-.124412.101084-.295478 0-.217719-.163289-.34213-.155515-.124417-.622057-.15552-.412113-.031103-.72314-.085533-.303252-.062206-.528748-.139963-.21772-.077757-.373234-.171065-.147739-.101085-.248823-.202169v-.178841l.808673-.824225.544299.21772-.769794.870879.217719-.404337q.06998.031103.147739.069982.08554.031102.21772.069982.139962.031102.349906.069982.21772.031103.5443.054431.513196.046654.839776.186617.32658.132187.474319.365458.155513.233272.155513.575403 0 .303252-.186617.590953-.186616.287701-.575402.474319-.388785.194392-.987515.194392zm0-2.80703q-.489869 0-.839775-.186617-.349907-.194393-.536524-.505421-.186617-.318804-.186617-.70759 0-.388785.186617-.699813t.536524-.497645q.349907-.194393.839775-.194393.48987 0 .839777.194393.349907.186617.536524.497645.186616.311028.186616.699814 0 .388785-.186616.707589-.186617.311028-.536524.505421-.349907.186617-.839777.186617zm0-.684262q.334356 0 .536524-.178841.209944-.178842.209944-.528748 0-.357683-.209944-.528749-.202168-.17884-.536524-.17884-.334355 0-.544299.17884-.209944.171066-.209944.528749 0 .349906.209944.528748.209944.17884.544299.17884zm.629833-1.3763-.178842-.637608h1.609572v.50542zm2.06834 3.219142v-3.85675h.933085v3.85675zm.466542-4.424377q-.256598 0-.427664-.155514-.163289-.16329-.163289-.404337 0-.233271.163289-.388785.171066-.16329.427664-.16329.256599 0 .427664.16329.171066.155514.171066.396561 0 .233271-.171066.396561-.171065.155514-.427664.155514zm2.908115 4.424377q-.388786 0-.684263-.124411-.295478-.124411-.458767-.412112-.155515-.287701-.155515-.777571v-1.81174h-.660935v-.730916h.660935l.101085-1.010842h.832v1.010842h1.057496v.730916h-1.057496v1.81174q0 .318804.124411.43544.124412.116635.43544.116635h.466542v.76202zm1.594012.038878q-.248822 0-.419887-.16329-.163289-.16329-.163289-.388785 0-.233271.163289-.388785.171066-.16329.419887-.16329.248824 0 .412112.16329.163291.155514.163291.388785 0 .225496-.163291.388785-.163289.16329-.412112.16329zm2.954768 1.609572q-.5443 0-.956413-.139963-.412111-.132187-.637606-.388785-.225496-.256599-.225496-.629832 0-.233272.116636-.450992.124411-.21772.365458-.39656.241047-.186617.622057-.334356l.404335.443215q-.365458.132187-.513195.295477-.147739.171066-.147739.388786 0 .171065.116635.295477.116636.124411.334356.186617.21772.06221.520973.06221.295477 0 .489869-.06998.194393-.06999.287701-.202168.101085-.124412.101085-.295478 0-.21772-.16329-.34213-.155515-.124417-.622057-.15552-.412113-.031103-.723141-.085533-.303253-.062206-.528748-.139963-.21772-.077757-.373234-.171065-.147739-.101085-.248823-.202169v-.178841l.808674-.824225.544299.21772-.769795.870879.21772-.404337q.06999.031103.147738.069982.08553.031102.21772.069982.139964.031102.349907.069982.21772.031103.5443.054431.513196.046654.839775.186617.32658.132187.474318.365458.155515.233272.155515.575403 0 .303252-.186617.590953-.186618.287701-.575403.474319-.388785.194392-.987514.194392zm0-2.80703q-.48987 0-.839775-.186617-.349909-.194393-.536524-.505421-.186618-.318804-.186618-.70759 0-.388785.186618-.699813.186615-.311028.536524-.497645.349906-.194393.839775-.194393.48987 0 .839776.194393.349908.186617.536523.497645.186618.311028.186618.699814 0 .388785-.186618.707589-.186614.311028-.536523.50542-.349907.186618-.839776.186618zm0-.684263q.334355 0 .536523-.178841.209945-.178841.209945-.528748 0-.357683-.209945-.528748-.202168-.178841-.536523-.178841-.334356 0-.5443.17884-.209944.171067-.209944.528749 0 .349907.209944.528748.209944.178841.5443.178841zm.629833-1.3763-.178842-.637608h1.609573v.505421zm3.211369 3.312452q-.458766 0-.762019-.155514-.295477-.16329-.443216-.427664-.139963-.27215-.139963-.590954 0-.365458.186617-.629832.194393-.27215.567627-.419888.373234-.155514.92531-.155514h.987515q0-.318804-.09331-.520973-.08554-.209944-.272149-.303252-.178842-.101085-.450991-.101085-.318805 0-.559851.155515-.233272.147738-.279926.466542h-.917533q.03888-.419888.272149-.72314.233271-.303253.614281-.466543.388785-.171066.878655-.171066.552075 0 .94086.194393.396562.186617.59873.536524.202169.349906.202169.847552v2.37159h-.769794l-.101084-.622056h-.0311q-.10886.186617-.256598.318804-.147738.132187-.318804.21772-.163289.085533-.365458.132187-.194393.046654-.412113.046654zm.287702-.738692q.233271 0 .412112-.077757.186617-.085533.311028-.233272.124411-.147738.194393-.334355.07776-.186617.09331-.396561h-.863104q-.279926 0-.458767.069982-.178841.069982-.264374.194393-.07776.116635-.07776.27215 0 .16329.07776.279925.08554.10886.225495.171065.147739.05443.349908.05443zm3.047539 2.200525.88643-1.990581h-.217719l-1.570693-3.421311h1.010842l1.166356 2.635964h.0311l1.088602-2.635964H41.5l-2.394918 5.411892z" aria-label="git.gay" fill="#b66de4"/></svg>